<mxfile host="app.diagrams.net" agent="Mozilla/5.0 (Windows NT 10.0; Win64; x64) AppleWebKit/537.36 (KHTML, like Gecko) Chrome/136.0.0.0 Safari/537.36" version="27.0.5">
  <diagram name="Página-1" id="KlbmcZpAb_SSr9tYCBlR">
    <mxGraphModel dx="2051" dy="667" grid="1" gridSize="10" guides="1" tooltips="1" connect="1" arrows="1" fold="1" page="1" pageScale="1" pageWidth="827" pageHeight="1169" math="0" shadow="0">
      <root>
        <mxCell id="0" />
        <mxCell id="1" parent="0" />
        <mxCell id="GM0EvHqoDfhebm5qIS6k-1" value="Novo esquema - Time de  Dados" style="swimlane;startSize=20;horizontal=1;containerType=tree;newEdgeStyle={&quot;edgeStyle&quot;:&quot;elbowEdgeStyle&quot;,&quot;startArrow&quot;:&quot;none&quot;,&quot;endArrow&quot;:&quot;none&quot;};" vertex="1" parent="1">
          <mxGeometry x="80" y="110" width="1530" height="500" as="geometry" />
        </mxCell>
        <mxCell id="GM0EvHqoDfhebm5qIS6k-2" value="" style="edgeStyle=elbowEdgeStyle;elbow=vertical;sourcePerimeterSpacing=0;targetPerimeterSpacing=0;startArrow=none;endArrow=none;rounded=0;curved=0;" edge="1" parent="GM0EvHqoDfhebm5qIS6k-1" source="GM0EvHqoDfhebm5qIS6k-4" target="GM0EvHqoDfhebm5qIS6k-5">
          <mxGeometry relative="1" as="geometry" />
        </mxCell>
        <mxCell id="GM0EvHqoDfhebm5qIS6k-3" value="" style="edgeStyle=elbowEdgeStyle;elbow=vertical;sourcePerimeterSpacing=0;targetPerimeterSpacing=0;startArrow=none;endArrow=none;rounded=0;curved=0;" edge="1" parent="GM0EvHqoDfhebm5qIS6k-1" source="GM0EvHqoDfhebm5qIS6k-4" target="GM0EvHqoDfhebm5qIS6k-6">
          <mxGeometry relative="1" as="geometry" />
        </mxCell>
        <UserObject label="KENIA" treeRoot="1" id="GM0EvHqoDfhebm5qIS6k-4">
          <mxCell style="whiteSpace=wrap;html=1;align=center;treeFolding=1;treeMoving=1;newEdgeStyle={&quot;edgeStyle&quot;:&quot;elbowEdgeStyle&quot;,&quot;startArrow&quot;:&quot;none&quot;,&quot;endArrow&quot;:&quot;none&quot;};" vertex="1" parent="GM0EvHqoDfhebm5qIS6k-1">
            <mxGeometry x="700" y="20" width="120" height="40" as="geometry" />
          </mxCell>
        </UserObject>
        <mxCell id="GM0EvHqoDfhebm5qIS6k-9" value="" style="edgeStyle=elbowEdgeStyle;elbow=vertical;sourcePerimeterSpacing=0;targetPerimeterSpacing=0;startArrow=none;endArrow=none;rounded=0;curved=0;" edge="1" target="GM0EvHqoDfhebm5qIS6k-10" source="GM0EvHqoDfhebm5qIS6k-4" parent="GM0EvHqoDfhebm5qIS6k-1">
          <mxGeometry relative="1" as="geometry">
            <mxPoint x="230" y="210" as="sourcePoint" />
          </mxGeometry>
        </mxCell>
        <mxCell id="GM0EvHqoDfhebm5qIS6k-22" value="" style="edgeStyle=elbowEdgeStyle;rounded=0;orthogonalLoop=1;jettySize=auto;html=1;elbow=vertical;startArrow=none;endArrow=none;" edge="1" target="GM0EvHqoDfhebm5qIS6k-23" source="GM0EvHqoDfhebm5qIS6k-17" parent="GM0EvHqoDfhebm5qIS6k-1">
          <mxGeometry relative="1" as="geometry">
            <mxPoint x="140" y="360" as="sourcePoint" />
          </mxGeometry>
        </mxCell>
        <mxCell id="GM0EvHqoDfhebm5qIS6k-29" value="" style="group" vertex="1" connectable="0" parent="GM0EvHqoDfhebm5qIS6k-1">
          <mxGeometry x="120" y="370" width="310" height="50" as="geometry" />
        </mxCell>
        <UserObject label="Luan Bavilloni" treeRoot="1" id="GM0EvHqoDfhebm5qIS6k-19">
          <mxCell style="whiteSpace=wrap;html=1;align=center;treeFolding=1;treeMoving=1;newEdgeStyle={&quot;edgeStyle&quot;:&quot;elbowEdgeStyle&quot;,&quot;startArrow&quot;:&quot;none&quot;,&quot;endArrow&quot;:&quot;none&quot;};" vertex="1" parent="GM0EvHqoDfhebm5qIS6k-29">
            <mxGeometry width="70" height="50" as="geometry" />
          </mxCell>
        </UserObject>
        <UserObject label="Gabrielle Sacramento" treeRoot="1" id="GM0EvHqoDfhebm5qIS6k-21">
          <mxCell style="whiteSpace=wrap;html=1;align=center;treeFolding=1;treeMoving=1;newEdgeStyle={&quot;edgeStyle&quot;:&quot;elbowEdgeStyle&quot;,&quot;startArrow&quot;:&quot;none&quot;,&quot;endArrow&quot;:&quot;none&quot;};" vertex="1" parent="GM0EvHqoDfhebm5qIS6k-29">
            <mxGeometry x="76" width="84" height="50" as="geometry" />
          </mxCell>
        </UserObject>
        <UserObject label="Breno Moura" treeRoot="1" id="GM0EvHqoDfhebm5qIS6k-23">
          <mxCell style="whiteSpace=wrap;html=1;align=center;treeFolding=1;treeMoving=1;newEdgeStyle={&quot;edgeStyle&quot;:&quot;elbowEdgeStyle&quot;,&quot;startArrow&quot;:&quot;none&quot;,&quot;endArrow&quot;:&quot;none&quot;};" vertex="1" parent="GM0EvHqoDfhebm5qIS6k-29">
            <mxGeometry x="166" width="64" height="50" as="geometry" />
          </mxCell>
        </UserObject>
        <UserObject label="Augusto Luna" treeRoot="1" id="GM0EvHqoDfhebm5qIS6k-25">
          <mxCell style="whiteSpace=wrap;html=1;align=center;treeFolding=1;treeMoving=1;newEdgeStyle={&quot;edgeStyle&quot;:&quot;elbowEdgeStyle&quot;,&quot;startArrow&quot;:&quot;none&quot;,&quot;endArrow&quot;:&quot;none&quot;};" vertex="1" parent="GM0EvHqoDfhebm5qIS6k-29">
            <mxGeometry x="240" width="70" height="50" as="geometry" />
          </mxCell>
        </UserObject>
        <mxCell id="GM0EvHqoDfhebm5qIS6k-50" value="" style="group" vertex="1" connectable="0" parent="GM0EvHqoDfhebm5qIS6k-1">
          <mxGeometry x="90" y="90" width="390" height="210" as="geometry" />
        </mxCell>
        <mxCell id="GM0EvHqoDfhebm5qIS6k-5" value="RAW" style="whiteSpace=wrap;html=1;align=center;verticalAlign=middle;treeFolding=1;treeMoving=1;newEdgeStyle={&quot;edgeStyle&quot;:&quot;elbowEdgeStyle&quot;,&quot;startArrow&quot;:&quot;none&quot;,&quot;endArrow&quot;:&quot;none&quot;};" vertex="1" parent="GM0EvHqoDfhebm5qIS6k-50">
          <mxGeometry width="390" height="31.5" as="geometry" />
        </mxCell>
        <UserObject label="&lt;div style=&quot;text-align: center;&quot;&gt;&lt;strong data-end=&quot;671&quot; data-start=&quot;659&quot;&gt;&lt;font style=&quot;font-size: 10px;&quot;&gt;DATA ENGINNER&lt;/font&gt;&lt;/strong&gt;&lt;/div&gt;&lt;font style=&quot;font-size: 10px;&quot;&gt;&lt;strong style=&quot;&quot; data-end=&quot;671&quot; data-start=&quot;659&quot;&gt;&lt;div&gt;&lt;strong data-end=&quot;671&quot; data-start=&quot;659&quot;&gt;&lt;br&gt;&lt;/strong&gt;&lt;/div&gt;- Ingestão&lt;/strong&gt;: criação e manutenção de pipelines de captura (CDC, streaming, batch).&lt;br&gt; - &lt;strong style=&quot;&quot; data-end=&quot;768&quot; data-start=&quot;749&quot;&gt;Observabilidade&lt;/strong&gt;: monitoramento de falhas, latência, throughput, back-pressure.&lt;br&gt; - &lt;strong style=&quot;&quot; data-end=&quot;860&quot; data-start=&quot;838&quot;&gt;Governança técnica&lt;/strong&gt;: versionamento de esquemas, automação de catálogos, gestão de PII.&lt;br&gt; - &lt;strong style=&quot;&quot; data-end=&quot;959&quot; data-start=&quot;934&quot;&gt;Custo e armazenamento&lt;/strong&gt;: escolha de formatos (Parquet, Avro), compressão, particionamento, retenção e tiering&lt;/font&gt;" treeRoot="1" id="GM0EvHqoDfhebm5qIS6k-17">
          <mxCell style="whiteSpace=wrap;html=1;align=left;treeFolding=1;treeMoving=1;newEdgeStyle={&quot;edgeStyle&quot;:&quot;elbowEdgeStyle&quot;,&quot;startArrow&quot;:&quot;none&quot;,&quot;endArrow&quot;:&quot;none&quot;};" vertex="1" parent="GM0EvHqoDfhebm5qIS6k-50">
            <mxGeometry y="31.5" width="390" height="178.5" as="geometry" />
          </mxCell>
        </UserObject>
        <mxCell id="GM0EvHqoDfhebm5qIS6k-49" style="edgeStyle=elbowEdgeStyle;rounded=0;orthogonalLoop=1;jettySize=auto;html=1;startArrow=none;endArrow=none;exitX=0;exitY=0;exitDx=0;exitDy=0;entryX=0;entryY=0.25;entryDx=0;entryDy=0;" edge="1" parent="GM0EvHqoDfhebm5qIS6k-50" source="GM0EvHqoDfhebm5qIS6k-17" target="GM0EvHqoDfhebm5qIS6k-17">
          <mxGeometry relative="1" as="geometry" />
        </mxCell>
        <mxCell id="GM0EvHqoDfhebm5qIS6k-18" value="" style="edgeStyle=elbowEdgeStyle;rounded=0;orthogonalLoop=1;jettySize=auto;html=1;elbow=vertical;startArrow=none;endArrow=none;" edge="1" source="GM0EvHqoDfhebm5qIS6k-17" target="GM0EvHqoDfhebm5qIS6k-19" parent="GM0EvHqoDfhebm5qIS6k-1">
          <mxGeometry relative="1" as="geometry" />
        </mxCell>
        <mxCell id="GM0EvHqoDfhebm5qIS6k-20" value="" style="edgeStyle=elbowEdgeStyle;rounded=0;orthogonalLoop=1;jettySize=auto;html=1;elbow=vertical;startArrow=none;endArrow=none;" edge="1" target="GM0EvHqoDfhebm5qIS6k-21" source="GM0EvHqoDfhebm5qIS6k-17" parent="GM0EvHqoDfhebm5qIS6k-1">
          <mxGeometry relative="1" as="geometry">
            <mxPoint x="155" y="505" as="sourcePoint" />
          </mxGeometry>
        </mxCell>
        <mxCell id="GM0EvHqoDfhebm5qIS6k-24" value="" style="edgeStyle=elbowEdgeStyle;rounded=0;orthogonalLoop=1;jettySize=auto;html=1;elbow=vertical;startArrow=none;endArrow=none;" edge="1" target="GM0EvHqoDfhebm5qIS6k-25" source="GM0EvHqoDfhebm5qIS6k-17" parent="GM0EvHqoDfhebm5qIS6k-1">
          <mxGeometry relative="1" as="geometry">
            <mxPoint x="155" y="505" as="sourcePoint" />
          </mxGeometry>
        </mxCell>
        <mxCell id="GM0EvHqoDfhebm5qIS6k-52" value="" style="group" vertex="1" connectable="0" parent="GM0EvHqoDfhebm5qIS6k-1">
          <mxGeometry x="560" y="90" width="400" height="210" as="geometry" />
        </mxCell>
        <mxCell id="GM0EvHqoDfhebm5qIS6k-6" value="TRUSTED" style="whiteSpace=wrap;html=1;align=center;verticalAlign=middle;treeFolding=1;treeMoving=1;newEdgeStyle={&quot;edgeStyle&quot;:&quot;elbowEdgeStyle&quot;,&quot;startArrow&quot;:&quot;none&quot;,&quot;endArrow&quot;:&quot;none&quot;};" vertex="1" parent="GM0EvHqoDfhebm5qIS6k-52">
          <mxGeometry width="400.00000000000006" height="30.000000000000004" as="geometry" />
        </mxCell>
        <UserObject label="&lt;div style=&quot;text-align: center;&quot;&gt;&lt;font style=&quot;font-size: 10px;&quot;&gt;&lt;b&gt;&lt;br&gt;&lt;/b&gt;&lt;/font&gt;&lt;/div&gt;&lt;div style=&quot;text-align: center;&quot;&gt;&lt;font style=&quot;font-size: 10px;&quot;&gt;&lt;b&gt;DATA CIENTIST&lt;/b&gt;&lt;/font&gt;&lt;/div&gt;&lt;div style=&quot;text-align: center;&quot;&gt;&lt;font style=&quot;font-size: 10px;&quot;&gt;&lt;b&gt;&lt;br&gt;&lt;/b&gt;&lt;/font&gt;&lt;/div&gt;&lt;font style=&quot;font-size: 10px;&quot;&gt;- &lt;strong style=&quot;&quot; data-end=&quot;1156&quot; data-start=&quot;1136&quot;&gt;Modelagem física&lt;/strong&gt;: definição de chaves, granularidade, SCD, e &quot;business keys&quot;.&lt;br&gt; - &lt;strong style=&quot;&quot; data-end=&quot;1246&quot; data-start=&quot;1224&quot;&gt;Qualidade de dados&lt;/strong&gt;: deduplicação, validação, tratamento de erros.&lt;br&gt; - &lt;strong style=&quot;&quot; data-end=&quot;1383&quot; data-start=&quot;1352&quot;&gt;Transformações idempotentes&lt;/strong&gt;: uso de MERGE/UPSERT, reconciliação de deletes, padronização de tipos.&lt;br&gt; - &lt;strong style=&quot;&quot; data-end=&quot;1483&quot; data-start=&quot;1461&quot;&gt;Linage e metadados&lt;/strong&gt;: documentação de origem, views mascaradas, controle de acesso RBAC a nível de linha/coluna.&lt;br&gt; - &lt;strong style=&quot;&quot; data-end=&quot;1601&quot; data-start=&quot;1582&quot;&gt;Automação CI/CD&lt;/strong&gt;: testes de pipeline, deploy via git-ops, rollback&lt;/font&gt;" treeRoot="1" id="GM0EvHqoDfhebm5qIS6k-26">
          <mxCell style="whiteSpace=wrap;html=1;align=left;treeFolding=1;treeMoving=1;newEdgeStyle={&quot;edgeStyle&quot;:&quot;elbowEdgeStyle&quot;,&quot;startArrow&quot;:&quot;none&quot;,&quot;endArrow&quot;:&quot;none&quot;};" vertex="1" parent="GM0EvHqoDfhebm5qIS6k-52">
            <mxGeometry y="30.000000000000004" width="400.00000000000006" height="180.00000000000003" as="geometry" />
          </mxCell>
        </UserObject>
        <mxCell id="GM0EvHqoDfhebm5qIS6k-43" style="edgeStyle=elbowEdgeStyle;rounded=0;orthogonalLoop=1;jettySize=auto;html=1;startArrow=none;endArrow=none;exitX=0.5;exitY=0;exitDx=0;exitDy=0;" edge="1" parent="GM0EvHqoDfhebm5qIS6k-52" source="GM0EvHqoDfhebm5qIS6k-6" target="GM0EvHqoDfhebm5qIS6k-6">
          <mxGeometry relative="1" as="geometry" />
        </mxCell>
        <mxCell id="GM0EvHqoDfhebm5qIS6k-53" value="" style="group" vertex="1" connectable="0" parent="GM0EvHqoDfhebm5qIS6k-1">
          <mxGeometry x="1000" y="110" width="420" height="220" as="geometry" />
        </mxCell>
        <mxCell id="GM0EvHqoDfhebm5qIS6k-59" value="" style="group" vertex="1" connectable="0" parent="GM0EvHqoDfhebm5qIS6k-53">
          <mxGeometry x="30" y="-20" width="390" height="210" as="geometry" />
        </mxCell>
        <mxCell id="GM0EvHqoDfhebm5qIS6k-10" value="REFINED" style="whiteSpace=wrap;html=1;align=center;verticalAlign=middle;treeFolding=1;treeMoving=1;newEdgeStyle={&quot;edgeStyle&quot;:&quot;elbowEdgeStyle&quot;,&quot;startArrow&quot;:&quot;none&quot;,&quot;endArrow&quot;:&quot;none&quot;};" vertex="1" parent="GM0EvHqoDfhebm5qIS6k-59">
          <mxGeometry x="-20" width="410" height="30" as="geometry" />
        </mxCell>
        <UserObject label="&lt;div&gt;&lt;font style=&quot;font-size: 10px;&quot;&gt;&lt;br&gt;&lt;/font&gt;&lt;/div&gt;&lt;font style=&quot;font-size: 10px;&quot;&gt;&lt;div style=&quot;&quot;&gt;&lt;font style=&quot;font-size: 10px;&quot;&gt;&lt;div style=&quot;font-size: 12px; text-align: center;&quot;&gt;&lt;font style=&quot;font-size: 10px;&quot;&gt;&lt;b&gt;DATA ANALYTICS / BI&lt;/b&gt;&lt;/font&gt;&lt;/div&gt;&lt;div&gt;&lt;font style=&quot;font-size: 10px;&quot;&gt;&lt;br&gt;&lt;/font&gt;&lt;/div&gt;&lt;/font&gt;&lt;/div&gt;&lt;div style=&quot;&quot;&gt;&lt;font style=&quot;font-size: 10px;&quot;&gt;-&amp;nbsp;&lt;b&gt;Coleta e integração de dados:&lt;/b&gt;&amp;nbsp;garantir integridade e consistência dos dados.&lt;/font&gt;&lt;/div&gt;- &lt;b&gt;Modelagem e limpeza dos dados:&lt;/b&gt; tratar dados, realizar transformações, junções e agregações (ETL/ELT), criar tabelas e&amp;nbsp; otimizar queries e modelos para reduzir tempo de atualização.&lt;br&gt; - &lt;b&gt;Análise de dados&lt;/b&gt; - aplicar estatísticas descritivas e exploratórias, detectar padrões, anomalias, tendências e correlações,&lt;br&gt; -&lt;b&gt; &lt;/b&gt;&lt;span style=&quot;&quot; data-end=&quot;1976&quot; data-start=&quot;1954&quot;&gt;&lt;b&gt;Visualização de dados&lt;/b&gt; - criar indicadores-chave de desempenho (KPIs) e métricas de negócio, apresentar dados de forma clara, intuitiva e acessível, customizar visualizações por área, monitorar desempenho dos painéis e consultas.&lt;/span&gt;&lt;/font&gt;" treeRoot="1" id="GM0EvHqoDfhebm5qIS6k-28">
          <mxCell style="whiteSpace=wrap;html=1;align=left;treeFolding=1;treeMoving=1;newEdgeStyle={&quot;edgeStyle&quot;:&quot;elbowEdgeStyle&quot;,&quot;startArrow&quot;:&quot;none&quot;,&quot;endArrow&quot;:&quot;none&quot;};" vertex="1" parent="GM0EvHqoDfhebm5qIS6k-59">
            <mxGeometry x="-20" y="30" width="410" height="180" as="geometry" />
          </mxCell>
        </UserObject>
        <mxCell id="GM0EvHqoDfhebm5qIS6k-11" style="edgeStyle=elbowEdgeStyle;rounded=0;orthogonalLoop=1;jettySize=auto;html=1;startArrow=none;endArrow=none;exitX=0.25;exitY=0;exitDx=0;exitDy=0;" edge="1" parent="GM0EvHqoDfhebm5qIS6k-59" source="GM0EvHqoDfhebm5qIS6k-10" target="GM0EvHqoDfhebm5qIS6k-10">
          <mxGeometry relative="1" as="geometry" />
        </mxCell>
        <mxCell id="GM0EvHqoDfhebm5qIS6k-60" value="" style="whiteSpace=wrap;html=1;align=left;" vertex="1" parent="GM0EvHqoDfhebm5qIS6k-1">
          <mxGeometry x="550" y="370" width="90" height="50" as="geometry" />
        </mxCell>
        <mxCell id="GM0EvHqoDfhebm5qIS6k-61" value="" style="edgeStyle=elbowEdgeStyle;rounded=0;orthogonalLoop=1;jettySize=auto;html=1;elbow=vertical;startArrow=none;endArrow=none;" edge="1" parent="GM0EvHqoDfhebm5qIS6k-1" source="GM0EvHqoDfhebm5qIS6k-26" target="GM0EvHqoDfhebm5qIS6k-60">
          <mxGeometry relative="1" as="geometry" />
        </mxCell>
        <mxCell id="GM0EvHqoDfhebm5qIS6k-62" value="" style="edgeStyle=elbowEdgeStyle;rounded=0;orthogonalLoop=1;jettySize=auto;html=1;elbow=vertical;startArrow=none;endArrow=none;" edge="1" target="GM0EvHqoDfhebm5qIS6k-63" source="GM0EvHqoDfhebm5qIS6k-26" parent="GM0EvHqoDfhebm5qIS6k-1">
          <mxGeometry relative="1" as="geometry">
            <mxPoint x="840" y="410" as="sourcePoint" />
          </mxGeometry>
        </mxCell>
        <mxCell id="GM0EvHqoDfhebm5qIS6k-63" value="" style="whiteSpace=wrap;html=1;align=left;" vertex="1" parent="GM0EvHqoDfhebm5qIS6k-1">
          <mxGeometry x="650" y="370" width="90" height="50" as="geometry" />
        </mxCell>
        <mxCell id="GM0EvHqoDfhebm5qIS6k-64" value="" style="edgeStyle=elbowEdgeStyle;rounded=0;orthogonalLoop=1;jettySize=auto;html=1;elbow=vertical;startArrow=none;endArrow=none;" edge="1" target="GM0EvHqoDfhebm5qIS6k-65" source="GM0EvHqoDfhebm5qIS6k-26" parent="GM0EvHqoDfhebm5qIS6k-1">
          <mxGeometry relative="1" as="geometry">
            <mxPoint x="840" y="410" as="sourcePoint" />
          </mxGeometry>
        </mxCell>
        <mxCell id="GM0EvHqoDfhebm5qIS6k-65" value="" style="whiteSpace=wrap;html=1;align=left;" vertex="1" parent="GM0EvHqoDfhebm5qIS6k-1">
          <mxGeometry x="747" y="370" width="90" height="50" as="geometry" />
        </mxCell>
        <mxCell id="GM0EvHqoDfhebm5qIS6k-66" value="" style="edgeStyle=elbowEdgeStyle;rounded=0;orthogonalLoop=1;jettySize=auto;html=1;elbow=vertical;startArrow=none;endArrow=none;" edge="1" target="GM0EvHqoDfhebm5qIS6k-67" source="GM0EvHqoDfhebm5qIS6k-26" parent="GM0EvHqoDfhebm5qIS6k-1">
          <mxGeometry relative="1" as="geometry">
            <mxPoint x="840" y="410" as="sourcePoint" />
          </mxGeometry>
        </mxCell>
        <mxCell id="GM0EvHqoDfhebm5qIS6k-67" value="" style="whiteSpace=wrap;html=1;align=left;" vertex="1" parent="GM0EvHqoDfhebm5qIS6k-1">
          <mxGeometry x="850" y="370" width="90" height="50" as="geometry" />
        </mxCell>
        <mxCell id="GM0EvHqoDfhebm5qIS6k-72" value="Andreia Oliveira" style="whiteSpace=wrap;html=1;align=center;" vertex="1" parent="GM0EvHqoDfhebm5qIS6k-1">
          <mxGeometry x="1040" y="360" width="80" height="60" as="geometry" />
        </mxCell>
        <mxCell id="GM0EvHqoDfhebm5qIS6k-73" value="" style="edgeStyle=elbowEdgeStyle;rounded=0;orthogonalLoop=1;jettySize=auto;html=1;elbow=vertical;startArrow=none;endArrow=none;" edge="1" parent="GM0EvHqoDfhebm5qIS6k-1" source="GM0EvHqoDfhebm5qIS6k-28" target="GM0EvHqoDfhebm5qIS6k-72">
          <mxGeometry relative="1" as="geometry" />
        </mxCell>
        <mxCell id="GM0EvHqoDfhebm5qIS6k-74" value="" style="edgeStyle=elbowEdgeStyle;rounded=0;orthogonalLoop=1;jettySize=auto;html=1;elbow=vertical;startArrow=none;endArrow=none;" edge="1" target="GM0EvHqoDfhebm5qIS6k-75" source="GM0EvHqoDfhebm5qIS6k-28" parent="GM0EvHqoDfhebm5qIS6k-1">
          <mxGeometry relative="1" as="geometry">
            <mxPoint x="1295" y="410" as="sourcePoint" />
          </mxGeometry>
        </mxCell>
        <mxCell id="GM0EvHqoDfhebm5qIS6k-75" value="" style="whiteSpace=wrap;html=1;align=left;" vertex="1" parent="GM0EvHqoDfhebm5qIS6k-1">
          <mxGeometry x="1130" y="360" width="80" height="60" as="geometry" />
        </mxCell>
        <mxCell id="GM0EvHqoDfhebm5qIS6k-76" value="" style="edgeStyle=elbowEdgeStyle;rounded=0;orthogonalLoop=1;jettySize=auto;html=1;elbow=vertical;startArrow=none;endArrow=none;" edge="1" target="GM0EvHqoDfhebm5qIS6k-77" source="GM0EvHqoDfhebm5qIS6k-28" parent="GM0EvHqoDfhebm5qIS6k-1">
          <mxGeometry relative="1" as="geometry">
            <mxPoint x="1295" y="410" as="sourcePoint" />
          </mxGeometry>
        </mxCell>
        <mxCell id="GM0EvHqoDfhebm5qIS6k-77" value="" style="whiteSpace=wrap;html=1;align=left;" vertex="1" parent="GM0EvHqoDfhebm5qIS6k-1">
          <mxGeometry x="1230" y="360" width="90" height="60" as="geometry" />
        </mxCell>
        <mxCell id="GM0EvHqoDfhebm5qIS6k-78" value="" style="edgeStyle=elbowEdgeStyle;rounded=0;orthogonalLoop=1;jettySize=auto;html=1;elbow=vertical;startArrow=none;endArrow=none;" edge="1" target="GM0EvHqoDfhebm5qIS6k-79" source="GM0EvHqoDfhebm5qIS6k-28" parent="GM0EvHqoDfhebm5qIS6k-1">
          <mxGeometry relative="1" as="geometry">
            <mxPoint x="1295" y="410" as="sourcePoint" />
          </mxGeometry>
        </mxCell>
        <mxCell id="GM0EvHqoDfhebm5qIS6k-79" value="" style="whiteSpace=wrap;html=1;align=left;" vertex="1" parent="GM0EvHqoDfhebm5qIS6k-1">
          <mxGeometry x="1340" y="360" width="80" height="60" as="geometry" />
        </mxCell>
      </root>
    </mxGraphModel>
  </diagram>
</mxfile>
